<?xml version="1.0" encoding="UTF-8" standalone="no"?>
<!-- Created with Inkscape (http://www.inkscape.org/) -->

<svg
   xmlns:dc="http://purl.org/dc/elements/1.1/"
   xmlns:cc="http://creativecommons.org/ns#"
   xmlns:rdf="http://www.w3.org/1999/02/22-rdf-syntax-ns#"
   xmlns:svg="http://www.w3.org/2000/svg"
   xmlns="http://www.w3.org/2000/svg"
   xmlns:xlink="http://www.w3.org/1999/xlink"
   xmlns:sodipodi="http://sodipodi.sourceforge.net/DTD/sodipodi-0.dtd"
   xmlns:inkscape="http://www.inkscape.org/namespaces/inkscape"
   width="210mm"
   height="297mm"
   viewBox="0 0 210 297"
   version="1.1"
   id="svg8"
   inkscape:version="0.92.5 (2060ec1f9f, 2020-04-08)"
   sodipodi:docname="ConeTechGuy.svg">
  <defs
     id="defs2">
    <path
       d="M35.2 105.82L34.88 106.49L34.81 107.38L34.97 108.21L35.34 108.74L36.52 109.14L37.9 109.22L39.13 109.1L39.89 108.91L40.59 108.34L40.94 107.62L41.03 106.94L40.99 106.48L40.66 105.84L40.14 105.23L39.64 104.68L39.39 104.23L39.42 103.29L39.71 102.45L40.07 101.69L40.31 101.01L40.42 100.15L40.45 99.35L40.39 98.58L40.25 97.86L39.65 104.86L38.65 104.91L37.33 105.07L36.06 105.37L36.06 105.37L35.2 105.82Z"
       id="a2ONvFwWtS" />
    <path
       d="M13.88 68.44C34.84 68.37 47.95 68.33 53.19 68.32C53.4 68.32 53.59 68.46 53.65 68.66C54.11 70.3 55.25 74.4 57.09 80.96L8.66 81.31L13.88 68.44Z"
       id="a5sxWz61J" />
    <path
       d="M18.03 103.81C18.34 103.99 17.89 105.36 18.85 105.95C19.82 106.55 21.58 106.54 21.4 107.69C21.28 108.46 20.32 109.29 18.53 110.19C16.32 109.71 14.98 109.25 14.53 108.81C14.07 108.38 14.15 107.46 14.78 106.06L16.62 104.75L18.28 103.56L19.65 99.19"
       id="gsyB9j64D" />
    <path
       d=""
       id="eqcl297R" />
    <path
       d="M63.02 98.79L57.3 81.44L9.14 80.01L1.97 98.81L63.02 98.79Z"
       id="bxGcjDzi" />
    <path
       d=""
       id="eJHMtbuAE" />
    <path
       d="M48.2 44.19L47.76 32.03C43.16 31.38 40.47 31.08 39.7 31.13C39.27 31.15 38.85 31.32 38.45 31.64C37.89 32.08 37.21 32.32 36.5 32.33C35.26 32.34 32.16 32.38 27.2 32.44L23.51 43.25L48.2 44.19Z"
       id="j6HMrAdcVx" />
    <path
       d="M33.53 13.5C34.93 10.26 37.14 6.78 40.16 3.05C40.2 3 40.28 3.02 40.28 3.08C40.77 7.82 41.59 11.81 42.74 15.04C43.64 17.59 44.43 19.41 45.1 20.51C45.99 21.95 46.57 23.57 46.8 25.25C46.93 26.16 47.25 28.44 47.76 32.1L27.43 31.6C30.17 22.61 32.2 16.58 33.53 13.5Z"
       id="a37FkO6ZWE" />
    <path
       d="M14 67.81L23.06 44.38L48.2 44.81C48.25 47.34 48.5 49.77 48.94 52.13C49.38 54.48 49.9 56.75 50.5 58.94L53.31 67.81L14 67.81Z"
       id="a3xgrE1iPE" />
    <path
       d="M41.13 61.08C39.53 60.01 38.53 59.35 38.13 59.08C36.34 57.89 33.98 57.99 32.3 59.33C31.61 59.89 29.89 61.27 27.13 63.48"
       id="eqfses54i" />
    <path
       d="M32.26 51.13L32.07 49.75"
       id="e5DeqZL76q" />
    <path
       d="M35.2 105.82L34.88 106.49L34.81 107.38L34.97 108.21L35.34 108.74L36.52 109.14L37.9 109.22L39.13 109.1L39.89 108.91L40.59 108.34L40.94 107.62L41.03 106.94L40.99 106.48L40.66 105.84L40.14 105.23L39.64 104.68L39.39 104.23L39.42 103.29L39.71 102.45L40.07 101.69L40.31 101.01L40.42 100.15L40.45 99.35L40.39 98.58L40.25 97.86L39.65 104.86L38.65 104.91L37.33 105.07L36.06 105.37L36.06 105.37L35.2 105.82Z"
       id="k1u5trRSZM" />
    <path
       d="M13.88 68.44C34.84 68.37 47.95 68.33 53.19 68.32C53.4 68.32 53.59 68.46 53.65 68.66C54.11 70.3 55.25 74.4 57.09 80.96L8.66 81.31L13.88 68.44Z"
       id="a5sxWz61J-5" />
    <path
       d="M18.03 103.68C18.34 103.86 17.89 105.23 18.85 105.82C19.82 106.42 21.58 106.41 21.4 107.56C21.28 108.33 20.32 109.16 18.53 110.06C16.32 109.58 14.98 109.12 14.53 108.68C14.07 108.25 14.15 107.33 14.78 105.93L16.84 105.05L18.28 103.43L19.65 99.06"
       id="g1embFq4Df" />
    <path
       d=""
       id="eqcl297R-8" />
    <path
       d="M63.02 98.79L57.3 81.44L9.14 80.01L1.97 98.81L63.02 98.79Z"
       id="bxGcjDzi-6" />
    <path
       d=""
       id="eJHMtbuAE-2" />
    <path
       d="M48.2 44.19L47.76 32.03C43.16 31.38 40.47 31.08 39.7 31.13C39.27 31.15 38.85 31.32 38.45 31.64C37.89 32.08 37.21 32.32 36.5 32.33C35.26 32.34 32.16 32.38 27.2 32.44L23.51 43.25L48.2 44.19Z"
       id="c77D2s21P" />
    <path
       d="M33.53 13.5C34.93 10.26 37.14 6.78 40.16 3.05C40.2 3 40.28 3.02 40.28 3.08C40.77 7.82 41.59 11.81 42.74 15.04C43.64 17.59 44.43 19.41 45.1 20.51C45.99 21.95 46.57 23.57 46.8 25.25C46.93 26.16 47.25 28.44 47.76 32.1L27.43 31.6C30.17 22.61 32.2 16.58 33.53 13.5Z"
       id="a37FkO6ZWE-1" />
    <path
       d="M14 67.81L23.06 44.38L48.2 44.81C48.25 47.34 48.5 49.77 48.94 52.13C49.38 54.48 49.9 56.75 50.5 58.94L53.31 67.81L14 67.81Z"
       id="a3xgrE1iPE-2" />
    <path
       d="M32.26 51.13L32.07 49.75"
       id="e5DeqZL76q-3" />
    <path
       d="M41.13 61.08C39.53 60.01 38.53 59.35 38.13 59.08C36.34 57.89 33.98 57.99 32.3 59.33C31.61 59.89 29.89 61.27 27.13 63.48"
       id="d4E4IhAI1" />
    <path
       d="M33.16 50.23C33.16 51.07 32.76 51.76 32.28 51.76C31.8 51.76 31.41 51.07 31.41 50.23C31.41 49.39 31.8 48.7 32.28 48.7C32.76 48.7 33.16 49.39 33.16 50.23Z"
       id="bmcvOxsaS" />
    <path
       d="M39.18 50.49C39.18 51.34 38.79 52.02 38.31 52.02C37.83 52.02 37.44 51.34 37.44 50.49C37.44 49.65 37.83 48.96 38.31 48.96C38.79 48.96 39.18 49.65 39.18 50.49Z"
       id="aBVRm10BE" />
    <path
       d="M35.2 105.82L34.88 106.49L34.81 107.38L34.97 108.21L35.34 108.74L36.52 109.14L37.9 109.22L39.13 109.1L39.89 108.91L40.59 108.34L40.94 107.62L41.03 106.94L40.99 106.48L40.66 105.84L40.14 105.23L39.64 104.68L39.39 104.23L39.42 103.29L39.71 102.45L40.07 101.69L40.31 101.01L40.42 100.15L40.45 99.35L40.39 98.58L40.25 97.86L39.65 104.86L38.65 104.91L37.33 105.07L36.06 105.37L36.06 105.37L35.2 105.82Z"
       id="k1u5trRSZM-6" />
    <path
       d="M13.88 68.44C34.84 68.37 47.95 68.33 53.19 68.32C53.4 68.32 53.59 68.46 53.65 68.66C54.11 70.3 55.25 74.4 57.09 80.96L8.66 81.31L13.88 68.44Z"
       id="a5sxWz61J-3" />
    <path
       d="M18.03 103.68C18.34 103.86 17.89 105.23 18.85 105.82C19.82 106.42 21.58 106.41 21.4 107.56C21.28 108.33 20.32 109.16 18.53 110.06C16.32 109.58 14.98 109.12 14.53 108.68C14.07 108.25 14.15 107.33 14.78 105.93L16.84 105.05L18.28 103.43L19.65 99.06"
       id="g1embFq4Df-3" />
    <path
       d=""
       id="eqcl297R-2" />
    <path
       d="M63.02 98.79L57.3 81.44L9.14 80.01L1.97 98.81L63.02 98.79Z"
       id="bxGcjDzi-3" />
    <path
       d=""
       id="eJHMtbuAE-1" />
    <path
       d="M48.2 44.19L47.76 32.03C43.16 31.38 40.47 31.08 39.7 31.13C39.27 31.15 38.85 31.32 38.45 31.64C37.89 32.08 37.21 32.32 36.5 32.33C35.26 32.34 32.16 32.38 27.2 32.44L23.51 43.25L48.2 44.19Z"
       id="c77D2s21P-2" />
    <path
       d="M33.53 13.5C34.93 10.26 37.14 6.78 40.16 3.05C40.2 3 40.28 3.02 40.28 3.08C40.77 7.82 41.59 11.81 42.74 15.04C43.64 17.59 44.43 19.41 45.1 20.51C45.99 21.95 46.57 23.57 46.8 25.25C46.93 26.16 47.25 28.44 47.76 32.1L27.43 31.6C30.17 22.61 32.2 16.58 33.53 13.5Z"
       id="a37FkO6ZWE-9" />
    <path
       d="M14 67.81L23.06 44.38L48.2 44.81C48.25 47.34 48.5 49.77 48.94 52.13C49.38 54.48 49.9 56.75 50.5 58.94L53.31 67.81L14 67.81Z"
       id="a3xgrE1iPE-8" />
    <path
       d="M32.26 51.13L32.07 49.75"
       id="e5DeqZL76q-36" />
    <path
       d="M41.13 61.08C39.53 60.01 38.53 59.35 38.13 59.08C36.34 57.89 33.98 57.99 32.3 59.33C31.61 59.89 29.89 61.27 27.13 63.48"
       id="d4E4IhAI1-8" />
    <path
       d="M33.16 50.23C33.16 51.07 32.76 51.76 32.28 51.76C31.8 51.76 31.41 51.07 31.41 50.23C31.41 49.39 31.8 48.7 32.28 48.7C32.76 48.7 33.16 49.39 33.16 50.23Z"
       id="bmcvOxsaS-5" />
    <path
       d="M39.18 50.49C39.18 51.34 38.79 52.02 38.31 52.02C37.83 52.02 37.44 51.34 37.44 50.49C37.44 49.65 37.83 48.96 38.31 48.96C38.79 48.96 39.18 49.65 39.18 50.49Z"
       id="aBVRm10BE-2" />
  </defs>
  <sodipodi:namedview
     id="base"
     pagecolor="#ffffff"
     bordercolor="#666666"
     borderopacity="1.0"
     inkscape:pageopacity="0.0"
     inkscape:pageshadow="2"
     inkscape:zoom="0.98994949"
     inkscape:cx="380.91842"
     inkscape:cy="575.28201"
     inkscape:document-units="mm"
     inkscape:current-layer="layer1"
     showgrid="false"
     inkscape:window-width="2560"
     inkscape:window-height="1377"
     inkscape:window-x="2552"
     inkscape:window-y="-8"
     inkscape:window-maximized="1" />
  <metadata
     id="metadata5">
    <rdf:RDF>
      <cc:Work
         rdf:about="">
        <dc:format>image/svg+xml</dc:format>
        <dc:type
           rdf:resource="http://purl.org/dc/dcmitype/StillImage" />
        <dc:title></dc:title>
      </cc:Work>
    </rdf:RDF>
  </metadata>
  <g
     inkscape:label="Layer 1"
     inkscape:groupmode="layer"
     id="layer1">
    <g
       id="g1035">
      <g
         transform="matrix(10.276303,0,0,10.276303,-400.42923,-1302.3849)"
         inkscape:label="Layer 1"
         id="layer1-5"
         style="display:inline">
        <g
           id="g513"
           transform="matrix(0.26458333,0,0,0.26458333,40.096777,126.37891)">
          <use
             id="use507"
             xlink:href="#k1u5trRSZM-6"
             style="opacity:1;fill:#5f370f;fill-opacity:1"
             x="0"
             y="0"
             width="100%"
             height="100%" />
          <g
             id="g511">
            <use
               id="use509"
               xlink:href="#k1u5trRSZM-6"
               style="opacity:1;fill-opacity:0;stroke:#5f370f;stroke-width:1;stroke-opacity:1"
               x="0"
               y="0"
               width="100%"
               height="100%" />
          </g>
        </g>
        <g
           id="g521"
           transform="matrix(0.26458333,0,0,0.26458333,40.096777,126.37891)">
          <use
             id="use515"
             xlink:href="#a5sxWz61J-3"
             style="opacity:1;fill:#ffffff;fill-opacity:1"
             x="0"
             y="0"
             width="100%"
             height="100%" />
          <g
             id="g519">
            <use
               id="use517"
               xlink:href="#a5sxWz61J-3"
               style="opacity:1;fill-opacity:0;stroke:#ffffff;stroke-width:1;stroke-opacity:1"
               x="0"
               y="0"
               width="100%"
               height="100%" />
          </g>
        </g>
        <g
           id="g529"
           transform="matrix(0.26458333,0,0,0.26458333,40.096777,126.37891)">
          <use
             id="use523"
             xlink:href="#g1embFq4Df-3"
             style="opacity:1;fill:#5f370f;fill-opacity:1"
             x="0"
             y="0"
             width="100%"
             height="100%" />
          <g
             id="g527">
            <use
               id="use525"
               xlink:href="#g1embFq4Df-3"
               style="opacity:1;fill-opacity:0;stroke:#5f370f;stroke-width:1;stroke-opacity:1"
               x="0"
               y="0"
               width="100%"
               height="100%" />
          </g>
        </g>
        <g
           id="g537"
           transform="matrix(0.26458333,0,0,0.26458333,40.096777,126.37891)">
          <use
             id="use531"
             xlink:href="#eqcl297R-2"
             style="opacity:1;fill:#ff6600;fill-opacity:1"
             x="0"
             y="0"
             width="100%"
             height="100%" />
          <g
             id="g535">
            <use
               id="use533"
               xlink:href="#eqcl297R-2"
               style="opacity:1;fill-opacity:0;stroke:#fb6400;stroke-width:1;stroke-opacity:1"
               x="0"
               y="0"
               width="100%"
               height="100%" />
          </g>
        </g>
        <g
           id="g545"
           transform="matrix(0.26458333,0,0,0.26458333,40.096777,126.37891)">
          <use
             id="use539"
             xlink:href="#bxGcjDzi-3"
             style="opacity:1;fill:#ff6600;fill-opacity:1"
             x="0"
             y="0"
             width="100%"
             height="100%" />
          <g
             id="g543">
            <use
               id="use541"
               xlink:href="#bxGcjDzi-3"
               style="opacity:1;fill-opacity:0;stroke:#ff6600;stroke-width:1;stroke-opacity:1"
               x="0"
               y="0"
               width="100%"
               height="100%" />
          </g>
        </g>
        <g
           id="g551"
           transform="matrix(0.26458333,0,0,0.26458333,40.096777,126.37891)"
           style="fill:#5f370f;fill-opacity:1">
          <g
             id="g549"
             style="fill:#5f370f;fill-opacity:1">
            <use
               id="use547"
               xlink:href="#eJHMtbuAE-1"
               style="opacity:1;fill:#5f370f;fill-opacity:1;stroke:#ffffff;stroke-width:1;stroke-opacity:1"
               x="0"
               y="0"
               width="100%"
               height="100%" />
          </g>
        </g>
        <g
           id="g559"
           transform="matrix(0.26458333,0,0,0.26458333,40.096777,126.37891)">
          <use
             id="use553"
             xlink:href="#c77D2s21P-2"
             style="opacity:1;fill:#ffffff;fill-opacity:1"
             x="0"
             y="0"
             width="100%"
             height="100%" />
          <g
             id="g557">
            <use
               id="use555"
               xlink:href="#c77D2s21P-2"
               style="opacity:1;fill-opacity:0;stroke:#ffffff;stroke-width:1;stroke-opacity:1"
               x="0"
               y="0"
               width="100%"
               height="100%" />
          </g>
        </g>
        <g
           id="g567"
           transform="matrix(0.26458333,0,0,0.26458333,40.096777,126.36039)">
          <use
             id="use561"
             xlink:href="#a37FkO6ZWE-9"
             style="opacity:1;fill:#fb6400;fill-opacity:1"
             x="0"
             y="0"
             width="100%"
             height="100%" />
          <g
             id="g565">
            <use
               id="use563"
               xlink:href="#a37FkO6ZWE-9"
               style="opacity:1;fill-opacity:0;stroke:#fb6400;stroke-width:1;stroke-opacity:1"
               x="0"
               y="0"
               width="100%"
               height="100%" />
          </g>
        </g>
        <g
           id="g575"
           transform="matrix(0.26458333,0,0,0.26458333,40.096777,126.37891)">
          <use
             id="use569"
             xlink:href="#a3xgrE1iPE-8"
             style="opacity:1;fill:#fb6400;fill-opacity:1"
             x="0"
             y="0"
             width="100%"
             height="100%" />
          <g
             id="g573">
            <use
               id="use571"
               xlink:href="#a3xgrE1iPE-8"
               style="opacity:1;fill-opacity:0;stroke:#fb6400;stroke-width:1;stroke-opacity:1"
               x="0"
               y="0"
               width="100%"
               height="100%" />
          </g>
        </g>
        <g
           id="g581"
           transform="matrix(0.26458333,0,0,0.26458333,40.096777,126.37891)">
          <g
             id="g579">
            <use
               id="use577"
               xlink:href="#e5DeqZL76q-36"
               style="opacity:0.5;fill-opacity:0;stroke:#633a12;stroke-width:1;stroke-opacity:1"
               x="0"
               y="0"
               width="100%"
               height="100%" />
          </g>
        </g>
        <g
           id="g591"
           transform="matrix(0.26458333,0,0,0.26458333,40.096777,126.37891)">
          <use
             id="use589"
             xlink:href="#bmcvOxsaS-5"
             style="opacity:1;fill:#633a12;fill-opacity:1"
             x="0"
             y="0"
             width="100%"
             height="100%" />
        </g>
        <g
           id="g794"
           transform="matrix(0.00240805,0,0,0.00240865,48.666999,131.66561)"
           style="fill:#633a12;fill-opacity:1">
          <path
             id="path792"
             d="m 727.6,161.2 c 22.5,15.1 43.1,32.2 61.7,51 l 70,-39.3 c 33.2,27 56,58.8 68.5,95.5 l -61.5,52.1 c 5.8,11.6 10.9,23.5 15.5,35.7 4.9,12.8 9,25.9 12.6,39.2 l 80.3,1 c 15.2,40 19.1,79 11.6,117 l -79.1,14.4 c -1.8,26.4 -6.2,52.8 -13.3,78.9 l 69,41 c -6.8,42.1 -22.9,77.8 -48.5,107 l -75.7,-27.1 c -15.1,22.5 -32.1,43.1 -50.9,61.8 l 39.3,69.9 c -26.9,33.2 -58.9,56 -95.5,68.5 l -52.1,-61.4 c -11.7,5.7 -23.5,10.9 -35.7,15.4 -12.9,4.9 -25.9,9 -39.2,12.5 l -1,80.4 c -39.9,15.2 -78.9,19 -117,11.6 l -14.4,-79.1 c -26.3,-1.8 -52.8,-6.2 -79,-13.3 l -40.9,69 c -42.2,-6.8 -77.9,-23 -107.1,-48.5 l 27.1,-75.7 c -22.5,-15 -43.1,-32.1 -61.7,-50.9 l -70,39.4 c -33.1,-27 -56,-58.9 -68.5,-95.6 l 61.4,-52 C 127.8,668 122.7,656 118.1,644 113.2,631.1 109,618 105.5,604.8 L 25.2,603.7 C 10,563.8 6.1,524.8 13.6,486.8 l 79.1,-14.4 c 1.8,-26.3 6.2,-52.7 13.3,-78.9 l -69,-41 c 6.8,-42.2 23,-77.8 48.5,-107.1 l 75.7,27.1 c 15.1,-22.5 32.2,-43.1 50.9,-61.7 l -39.3,-70 c 27,-33.1 58.8,-56 95.5,-68.5 l 52.1,61.4 c 11.7,-5.7 23.5,-10.8 35.7,-15.4 12.8,-4.9 25.9,-9 39.2,-12.6 l 1,-80.3 C 436.2,10.2 475.2,6.3 513.2,13.8 l 14.4,79.1 c 26.4,1.8 52.8,6.2 78.9,13.3 l 41,-69 c 42.1,6.8 77.8,23 107.1,48.5 z M 752.3,405 C 728,340.4 679,285.1 611.2,254.4 543.3,223.7 469.5,223.4 404.9,247.7 340.4,272 285.1,321 254.4,388.8 c -30.7,67.8 -31,141.6 -6.7,206.3 24.3,64.5 73.2,119.8 141.1,150.5 67.8,30.8 141.6,31 206.2,6.7 64.6,-24.2 119.9,-73.2 150.5,-141.1 30.8,-67.8 31.1,-141.7 6.8,-206.2 z"
             inkscape:connector-curvature="0"
             style="fill:#633a12;fill-opacity:1" />
        </g>
        <g
           style="display:inline;fill:#633a12;fill-opacity:1"
           id="g794-6-7"
           transform="matrix(0.00125546,6.5348164e-5,-6.5364142e-5,0.00125576,49.635765,139.05588)"
           inkscape:transform-center-x="-0.045746039"
           inkscape:transform-center-y="-0.0050893087">
          <path
             id="path792-3-6"
             d="m 770.03877,193.93749 c 20.32733,17.91685 38.50895,37.56761 54.48504,58.64177 l 74.54664,-29.79282 c 29.3757,31.11576 47.81203,65.62797 55.39503,103.64888 l -67.79725,43.5958 c 4.22991,12.25969 7.72655,24.72512 10.68818,37.42246 3.18042,13.33147 5.52842,26.85557 7.35453,40.51246 l 79.47685,11.50891 c 9.82729,41.64611 8.58301,80.82078 -3.83197,117.51092 l -80.30525,3.91553 c -5.24401,25.9367 -13.06561,51.53286 -23.52463,76.47796 l 63.03254,49.6841 c -12.25829,40.84649 -32.89774,74.13005 -62.10354,99.72534 l -71.49629,-36.78146 c -17.91831,20.3283 -37.47127,38.52413 -58.55973,54.60057 l 29.8014,74.44496 c -31.01877,29.39055 -65.73073,47.80274 -103.65331,55.40121 l -43.60493,-67.69475 c -12.3461,4.11843 -24.72582,7.72807 -37.41036,10.59136 -13.43093,3.16815 -26.85615,5.5301 -40.50017,7.25792 l -11.52721,79.57606 c -41.54795,9.84297 -80.70977,8.50208 -117.51167,-3.8244 l -3.91042,-80.30432 c -25.83744,-5.22921 -51.53245,-13.0622 -76.57623,-23.53263 L 292.9166,939.57161 C 251.97141,927.30295 218.702,906.56667 193.09526,877.4619 l 36.78635,-71.49804 c -20.34043,-17.81772 -38.52205,-37.46848 -54.49814,-58.54264 l -74.55975,29.89196 C 71.547164,746.21052 53.024799,711.58607 45.441801,673.56516 L 113.12681,630.0554 c -4.13078,-12.2466 -7.61431,-24.81116 -10.60215,-37.31023 -3.167314,-13.4306 -5.614456,-26.9678 -7.354527,-40.51246 L 15.706385,540.62467 C 5.8659951,499.0777 7.1102721,459.90303 19.52525,423.21288 l 80.305252,-3.91553 C 105.06141,393.45979 112.88301,367.86364 123.35513,342.8194 L 60.322592,293.1353 c 12.27139,-40.94563 32.99688,-74.11695 62.116648,-99.82448 l 71.49628,36.78146 c 17.91832,-20.32831 37.57041,-38.51103 58.54663,-54.50143 l -29.78829,-74.54411 c 31.1048,-29.278303 65.63159,-47.815829 103.65331,-55.401201 l 43.60493,67.694741 c 12.3461,-4.11843 24.71271,-7.62893 37.41036,-10.59135 13.33178,-3.181249 26.85615,-5.5301 40.51327,-7.357065 l 11.51411,-79.476917 c 41.54795,-9.8429709 80.72287,-8.6012166 117.41253,3.811303 l 3.91041,80.304319 c 25.93659,5.24231 51.53246,13.0622 76.4771,23.51953 l 49.68856,-63.035194 c 40.84605,12.255563 74.11546,32.991848 99.82134,62.109714 z m -7.46108,244.93384 C 746.95248,371.64535 705.62147,310.40406 642.42885,271.08836 c -63.29176,-39.3288 -136.41637,-49.29239 -203.64392,-33.663 -67.12841,15.64248 -128.37287,56.97707 -167.69295,120.17167 -39.32009,63.19461 -49.28845,136.31924 -33.67635,203.64435 15.6383,67.12684 56.87018,128.35504 120.16194,167.68384 63.17952,39.41484 136.31723,49.27928 203.54478,33.6499 67.21444,-15.53024 128.4589,-56.86483 167.69296,-120.17168 39.41922,-63.18151 49.40069,-136.40527 33.76238,-203.53211 z"
             inkscape:connector-curvature="0"
             style="fill:#633a12;fill-opacity:1" />
        </g>
        <path
           style="fill:#ff0000;fill-opacity:1;stroke-width:0.03125"
           d="m 189.39304,529.2431 c -0.32244,-0.13572 -0.53336,-0.33326 -0.68785,-0.64421 -0.0941,-0.18937 -0.10059,-0.22373 -0.10059,-0.53125 0,-0.30492 0.007,-0.34407 0.0998,-0.53943 0.38032,-0.80285 1.43181,-0.98095 2.04664,-0.34665 0.50134,0.51722 0.48212,1.31866 -0.0434,1.81024 -0.24055,0.225 -0.44859,0.30531 -0.82175,0.31723 -0.27411,0.009 -0.33465,6.5e-4 -0.49281,-0.0659 z"
           id="path856"
           inkscape:connector-curvature="0"
           transform="scale(0.26458333)" />
        <path
           style="fill:none;stroke:#633a12;stroke-width:0.26458332px;stroke-linecap:butt;stroke-linejoin:miter;stroke-opacity:1"
           d="m 47.286002,142.41719 c 1.088101,-0.12984 2.363375,-0.10148 3.35251,-0.0319 0.300973,0.0212 0.63359,-0.078 0.72857,-0.19683"
           id="path862"
           inkscape:connector-curvature="0"
           sodipodi:nodetypes="csc" />
      </g>
    </g>
  </g>
</svg>
