<?xml version="1.0" encoding="UTF-8" standalone="no"?>
<svg
   xmlns:dc="http://purl.org/dc/elements/1.1/"
   xmlns:cc="http://creativecommons.org/ns#"
   xmlns:rdf="http://www.w3.org/1999/02/22-rdf-syntax-ns#"
   xmlns:svg="http://www.w3.org/2000/svg"
   xmlns="http://www.w3.org/2000/svg"
   xmlns:xlink="http://www.w3.org/1999/xlink"
   xmlns:sodipodi="http://sodipodi.sourceforge.net/DTD/sodipodi-0.dtd"
   xmlns:inkscape="http://www.inkscape.org/namespaces/inkscape"
   version="1.1"
   preserveAspectRatio="xMidYMid meet"
   viewBox="0 0 65 113.21"
   width="65"
   height="113.21"
   id="svg119"
   sodipodi:docname="coronaConeGod.svg"
   inkscape:label="coneGod"
   inkscape:version="0.92.5 (2060ec1f9f, 2020-04-08)">
  <metadata
     id="metadata123">
    <rdf:RDF>
      <cc:Work
         rdf:about="">
        <dc:format>image/svg+xml</dc:format>
        <dc:type
           rdf:resource="http://purl.org/dc/dcmitype/StillImage" />
        <dc:title></dc:title>
      </cc:Work>
    </rdf:RDF>
  </metadata>
  <sodipodi:namedview
     pagecolor="#ffffff"
     bordercolor="#666666"
     borderopacity="1"
     objecttolerance="10"
     gridtolerance="10"
     guidetolerance="10"
     inkscape:pageopacity="0"
     inkscape:pageshadow="2"
     inkscape:window-width="1920"
     inkscape:window-height="1017"
     id="namedview121"
     showgrid="true"
     inkscape:snap-grids="true"
     inkscape:snap-page="true"
     inkscape:snap-smooth-nodes="false"
     inkscape:object-nodes="true"
     showguides="true"
     inkscape:snap-center="true"
     inkscape:snap-midpoints="false"
     inkscape:snap-others="true"
     inkscape:snap-object-midpoints="true"
     inkscape:snap-perpendicular="false"
     inkscape:snap-bbox="true"
     inkscape:zoom="5.6568543"
     inkscape:cx="-40.535837"
     inkscape:cy="40.77075"
     inkscape:window-x="-8"
     inkscape:window-y="-8"
     inkscape:window-maximized="1"
     inkscape:current-layer="svg119" />
  <defs
     id="defs23">
    <path
       d="M35.2 105.82L34.88 106.49L34.81 107.38L34.97 108.21L35.34 108.74L36.52 109.14L37.9 109.22L39.13 109.1L39.89 108.91L40.59 108.34L40.94 107.62L41.03 106.94L40.99 106.48L40.66 105.84L40.14 105.23L39.64 104.68L39.39 104.23L39.42 103.29L39.71 102.45L40.07 101.69L40.31 101.01L40.42 100.15L40.45 99.35L40.39 98.58L40.25 97.86L39.65 104.86L38.65 104.91L37.33 105.07L36.06 105.37L36.06 105.37L35.2 105.82Z"
       id="k1u5trRSZM" />
    <path
       d="M13.88 68.44C34.84 68.37 47.95 68.33 53.19 68.32C53.4 68.32 53.59 68.46 53.65 68.66C54.11 70.3 55.25 74.4 57.09 80.96L8.66 81.31L13.88 68.44Z"
       id="a5sxWz61J" />
    <path
       d="M18.03 103.68C18.34 103.86 17.89 105.23 18.85 105.82C19.82 106.42 21.58 106.41 21.4 107.56C21.28 108.33 20.32 109.16 18.53 110.06C16.32 109.58 14.98 109.12 14.53 108.68C14.07 108.25 14.15 107.33 14.78 105.93L16.84 105.05L18.28 103.43L19.65 99.06"
       id="g1embFq4Df" />
    <path
       d=""
       id="eqcl297R" />
    <path
       d="M63.02 98.79L57.3 81.44L9.14 80.01L1.97 98.81L63.02 98.79Z"
       id="bxGcjDzi" />
    <path
       d=""
       id="eJHMtbuAE" />
    <path
       d="M48.2 44.19L47.76 32.03C43.16 31.38 40.47 31.08 39.7 31.13C39.27 31.15 38.85 31.32 38.45 31.64C37.89 32.08 37.21 32.32 36.5 32.33C35.26 32.34 32.16 32.38 27.2 32.44L23.51 43.25L48.2 44.19Z"
       id="c77D2s21P" />
    <path
       d="M33.53 13.5C34.93 10.26 37.14 6.78 40.16 3.05C40.2 3 40.28 3.02 40.28 3.08C40.77 7.82 41.59 11.81 42.74 15.04C43.64 17.59 44.43 19.41 45.1 20.51C45.99 21.95 46.57 23.57 46.8 25.25C46.93 26.16 47.25 28.44 47.76 32.1L27.43 31.6C30.17 22.61 32.2 16.58 33.53 13.5Z"
       id="a37FkO6ZWE" />
    <path
       d="M14 67.81L23.06 44.38L48.2 44.81C48.25 47.34 48.5 49.77 48.94 52.13C49.38 54.48 49.9 56.75 50.5 58.94L53.31 67.81L14 67.81Z"
       id="a3xgrE1iPE" />
    <path
       d="M32.26 51.13L32.07 49.75"
       id="e5DeqZL76q" />
    <path
       d="M27.13 60.65C28.15 61.33 28.79 61.76 29.04 61.93C31.54 63.59 34.76 63.67 37.33 62.13C37.77 61.86 38.87 61.2 40.63 60.14"
       id="b2uzggUgLy" />
    <path
       d="M33.16 50.23C33.16 51.07 32.76 51.76 32.28 51.76C31.8 51.76 31.41 51.07 31.41 50.23C31.41 49.39 31.8 48.7 32.28 48.7C32.76 48.7 33.16 49.39 33.16 50.23Z"
       id="bmcvOxsaS" />
    <path
       d="M39.18 50.49C39.18 51.34 38.79 52.02 38.31 52.02C37.83 52.02 37.44 51.34 37.44 50.49C37.44 49.65 37.83 48.96 38.31 48.96C38.79 48.96 39.18 49.65 39.18 50.49Z"
       id="aBVRm10BE" />
  </defs>
  <g
     id="g8724"
     transform="matrix(1.0276442,0,0,1.0420845,-0.83106935,-2.2465577)"
     inkscape:label="g8724"
     style="display:inline"
     sodipodi:insensitive="true">
    <g
       id="g31">
      <use
         height="100%"
         width="100%"
         y="0"
         x="0"
         style="opacity:1;fill:#5f370f;fill-opacity:1"
         id="use25"
         xlink:href="#k1u5trRSZM" />
      <g
         id="g29">
        <use
           height="100%"
           width="100%"
           y="0"
           x="0"
           style="opacity:1;fill-opacity:0;stroke:#5f370f;stroke-width:1;stroke-opacity:1"
           id="use27"
           xlink:href="#k1u5trRSZM" />
      </g>
    </g>
    <g
       id="g39">
      <use
         height="100%"
         width="100%"
         y="0"
         x="0"
         style="opacity:1;fill:#ffffff;fill-opacity:1"
         id="use33"
         xlink:href="#a5sxWz61J" />
      <g
         id="g37">
        <use
           height="100%"
           width="100%"
           y="0"
           x="0"
           style="opacity:1;fill-opacity:0;stroke:#ffffff;stroke-width:1;stroke-opacity:1"
           id="use35"
           xlink:href="#a5sxWz61J" />
      </g>
    </g>
    <g
       id="g47">
      <use
         height="100%"
         width="100%"
         y="0"
         x="0"
         style="opacity:1;fill:#5f370f;fill-opacity:1"
         id="use41"
         xlink:href="#g1embFq4Df" />
      <g
         id="g45">
        <use
           height="100%"
           width="100%"
           y="0"
           x="0"
           style="opacity:1;fill-opacity:0;stroke:#5f370f;stroke-width:1;stroke-opacity:1"
           id="use43"
           xlink:href="#g1embFq4Df" />
      </g>
    </g>
    <g
       id="g55">
      <use
         height="100%"
         width="100%"
         y="0"
         x="0"
         style="opacity:1;fill:#ff6600;fill-opacity:1"
         id="use49"
         xlink:href="#eqcl297R" />
      <g
         id="g53">
        <use
           height="100%"
           width="100%"
           y="0"
           x="0"
           style="opacity:1;fill-opacity:0;stroke:#fb6400;stroke-width:1;stroke-opacity:1"
           id="use51"
           xlink:href="#eqcl297R" />
      </g>
    </g>
    <g
       id="g63">
      <use
         height="100%"
         width="100%"
         y="0"
         x="0"
         style="opacity:1;fill:#ff6600;fill-opacity:1"
         id="use57"
         xlink:href="#bxGcjDzi" />
      <g
         id="g61">
        <use
           height="100%"
           width="100%"
           y="0"
           x="0"
           style="opacity:1;fill-opacity:0;stroke:#ff6600;stroke-width:1;stroke-opacity:1"
           id="use59"
           xlink:href="#bxGcjDzi" />
      </g>
    </g>
    <g
       id="g69">
      <g
         id="g67">
        <use
           height="100%"
           width="100%"
           y="0"
           x="0"
           style="opacity:1;fill-opacity:0;stroke:#ffffff;stroke-width:1;stroke-opacity:1"
           id="use65"
           xlink:href="#eJHMtbuAE" />
      </g>
    </g>
    <g
       id="g77">
      <use
         height="100%"
         width="100%"
         y="0"
         x="0"
         style="opacity:1;fill:#ffffff;fill-opacity:1"
         id="use71"
         xlink:href="#c77D2s21P" />
      <g
         id="g75">
        <use
           height="100%"
           width="100%"
           y="0"
           x="0"
           style="opacity:1;fill-opacity:0;stroke:#ffffff;stroke-width:1;stroke-opacity:1"
           id="use73"
           xlink:href="#c77D2s21P" />
      </g>
    </g>
    <g
       id="g85">
      <use
         height="100%"
         width="100%"
         y="0"
         x="0"
         style="opacity:1;fill:#fb6400;fill-opacity:1"
         id="use79"
         xlink:href="#a37FkO6ZWE" />
      <g
         id="g83">
        <use
           height="100%"
           width="100%"
           y="0"
           x="0"
           style="opacity:1;fill-opacity:0;stroke:#fb6400;stroke-width:1;stroke-opacity:1"
           id="use81"
           xlink:href="#a37FkO6ZWE" />
      </g>
    </g>
    <g
       id="g93">
      <use
         height="100%"
         width="100%"
         y="0"
         x="0"
         style="opacity:1;fill:#fb6400;fill-opacity:1"
         id="use87"
         xlink:href="#a3xgrE1iPE" />
      <g
         id="g91">
        <use
           height="100%"
           width="100%"
           y="0"
           x="0"
           style="opacity:1;fill-opacity:0;stroke:#fb6400;stroke-width:1;stroke-opacity:1"
           id="use89"
           xlink:href="#a3xgrE1iPE" />
      </g>
    </g>
    <g
       id="g99">
      <g
         id="g97">
        <use
           height="100%"
           width="100%"
           y="0"
           x="0"
           style="opacity:0.5;fill-opacity:0;stroke:#633a12;stroke-width:1;stroke-opacity:1"
           id="use95"
           xlink:href="#e5DeqZL76q" />
      </g>
    </g>
    <g
       id="g105">
      <g
         id="g103">
        <use
           height="100%"
           width="100%"
           y="0"
           x="0"
           style="opacity:1;fill-opacity:0;stroke:#633a12;stroke-width:1;stroke-opacity:1"
           id="use101"
           xlink:href="#b2uzggUgLy" />
      </g>
    </g>
    <g
       id="g109">
      <use
         height="100%"
         width="100%"
         y="0"
         x="0"
         style="opacity:1;fill:#633a12;fill-opacity:1"
         id="use107"
         xlink:href="#bmcvOxsaS" />
    </g>
    <g
       id="g113"
       style="display:inline">
      <use
         height="100%"
         width="100%"
         y="0"
         x="0"
         style="opacity:1;fill:#633a12;fill-opacity:1"
         id="use111"
         xlink:href="#aBVRm10BE" />
    </g>
  </g>
  <g
     id="g8976"
     sodipodi:insensitive="true">
    <path
       sodipodi:nodetypes="cc"
       inkscape:connector-curvature="0"
       id="path8728"
       d="m 45.917578,54.797834 c 0.844379,0.02959 3.722666,-1.930307 4.194719,-2.03119"
       style="fill:#ffffff;stroke:#000000;stroke-width:1px;stroke-linecap:butt;stroke-linejoin:miter;stroke-opacity:1" />
    <path
       sodipodi:nodetypes="csc"
       inkscape:connector-curvature="0"
       id="path8734"
       d="m 46.297259,63.737931 c 0.384007,-0.551296 0.836663,-1.196431 3.211776,-6.528918 0.108775,-0.244217 0.780077,-1.62398 1.187232,-1.73099"
       style="fill:none;stroke:#000000;stroke-width:1;stroke-linecap:butt;stroke-linejoin:miter;stroke-miterlimit:4;stroke-dasharray:none;stroke-dashoffset:0;stroke-opacity:1;paint-order:normal" />
    <path
       sodipodi:nodetypes="cc"
       inkscape:connector-curvature="0"
       id="path8728-2"
       d="m 22.142665,54.780436 c -0.156879,-0.03291 -2.539691,-1.311784 -3.331438,-1.621034"
       style="fill:#ffffff;stroke:#000000;stroke-width:1px;stroke-linecap:butt;stroke-linejoin:miter;stroke-opacity:1" />
    <path
       sodipodi:nodetypes="csc"
       inkscape:connector-curvature="0"
       id="path8734-5"
       d="m 21.973797,63.891278 c -1.12592,-0.291922 -1.909522,-4.313744 -2.300246,-6.037091 -0.139802,-0.61662 -0.833135,-2.867975 -1.465269,-3.100307"
       style="fill:none;stroke:#000000;stroke-width:1px;stroke-linecap:butt;stroke-linejoin:round;stroke-opacity:1" />
    <path
       sodipodi:nodetypes="cccccc"
       inkscape:connector-curvature="0"
       id="rect8726"
       d="m 21.564882,53.510319 c 9.342702,1.501641 16.39862,2.035293 25.325966,0.249999 0.57069,4.011011 0.641072,7.353024 -0.03179,10.562943 -9.438129,4.06582 -17.793444,3.849143 -25.231678,-10e-7 -0.546013,-3.45843 -0.989829,-6.945248 -0.0625,-10.812941 z"
       style="fill:#efefef;fill-opacity:1" />
  </g>
</svg>
