<?xml version="1.0" encoding="UTF-8" standalone="no"?>
<svg
   xmlns:osb="http://www.openswatchbook.org/uri/2009/osb"
   xmlns:dc="http://purl.org/dc/elements/1.1/"
   xmlns:cc="http://creativecommons.org/ns#"
   xmlns:rdf="http://www.w3.org/1999/02/22-rdf-syntax-ns#"
   xmlns:svg="http://www.w3.org/2000/svg"
   xmlns="http://www.w3.org/2000/svg"
   xmlns:xlink="http://www.w3.org/1999/xlink"
   xmlns:sodipodi="http://sodipodi.sourceforge.net/DTD/sodipodi-0.dtd"
   xmlns:inkscape="http://www.inkscape.org/namespaces/inkscape"
   version="1.1"
   preserveAspectRatio="xMidYMid meet"
   viewBox="0 0 65 113.21"
   width="65"
   height="113.21"
   id="svg3939"
   sodipodi:docname="Hvezdar.svg"
   inkscape:version="0.92.5 (2060ec1f9f, 2020-04-08)">
  <metadata
     id="metadata3943">
    <rdf:RDF>
      <cc:Work
         rdf:about="">
        <dc:format>image/svg+xml</dc:format>
        <dc:type
           rdf:resource="http://purl.org/dc/dcmitype/StillImage" />
        <dc:title></dc:title>
      </cc:Work>
    </rdf:RDF>
  </metadata>
  <sodipodi:namedview
     pagecolor="#ffffff"
     bordercolor="#666666"
     borderopacity="1"
     objecttolerance="10"
     gridtolerance="10"
     guidetolerance="10"
     inkscape:pageopacity="0"
     inkscape:pageshadow="2"
     inkscape:window-width="1920"
     inkscape:window-height="1017"
     id="namedview3941"
     showgrid="false"
     showguides="false"
     inkscape:snap-grids="false"
     inkscape:zoom="16"
     inkscape:cx="26.217329"
     inkscape:cy="59.506286"
     inkscape:window-x="1912"
     inkscape:window-y="-8"
     inkscape:window-maximized="1"
     inkscape:current-layer="g3937" />
  <defs
     id="defs3843">
    <linearGradient
       id="linearGradient6319"
       osb:paint="solid">
      <stop
         style="stop-color:#000000;stop-opacity:0.21176471;"
         offset="0"
         id="stop6317" />
    </linearGradient>
    <path
       d="M35.2 105.82L34.88 106.49L34.81 107.38L34.97 108.21L35.34 108.74L36.52 109.14L37.9 109.22L39.13 109.1L39.89 108.91L40.59 108.34L40.94 107.62L41.03 106.94L40.99 106.48L40.66 105.84L40.14 105.23L39.64 104.68L39.39 104.23L39.42 103.29L39.71 102.45L40.07 101.69L40.31 101.01L40.42 100.15L40.45 99.35L40.39 98.58L40.25 97.86L39.65 104.86L38.65 104.91L37.33 105.07L36.06 105.37L36.06 105.37L35.2 105.82Z"
       id="k1u5trRSZM" />
    <path
       d="M13.88 68.44C34.84 68.37 47.95 68.33 53.19 68.32C53.4 68.32 53.59 68.46 53.65 68.66C54.11 70.3 55.25 74.4 57.09 80.96L8.66 81.31L13.88 68.44Z"
       id="a5sxWz61J" />
    <path
       d="M18.03 103.68C18.34 103.86 17.89 105.23 18.85 105.82C19.82 106.42 21.58 106.41 21.4 107.56C21.28 108.33 20.32 109.16 18.53 110.06C16.32 109.58 14.98 109.12 14.53 108.68C14.07 108.25 14.15 107.33 14.78 105.93L16.84 105.05L18.28 103.43L19.65 99.06"
       id="g1embFq4Df" />
    <path
       d=""
       id="eqcl297R" />
    <path
       d="M63.02 98.79L57.3 81.44L9.14 80.01L1.97 98.81L63.02 98.79Z"
       id="bxGcjDzi" />
    <path
       d=""
       id="eJHMtbuAE" />
    <path
       d="M48.2 44.19L47.76 32.03C43.16 31.38 40.47 31.08 39.7 31.13C39.27 31.15 38.85 31.32 38.45 31.64C37.89 32.08 37.21 32.32 36.5 32.33C35.26 32.34 32.16 32.38 27.2 32.44L23.51 43.25L48.2 44.19Z"
       id="c77D2s21P" />
    <path
       d="M33.53 13.5C34.93 10.26 37.14 6.78 40.16 3.05C40.2 3 40.28 3.02 40.28 3.08C40.77 7.82 41.59 11.81 42.74 15.04C43.64 17.59 44.43 19.41 45.1 20.51C45.99 21.95 46.57 23.57 46.8 25.25C46.93 26.16 47.25 28.44 47.76 32.1L27.43 31.6C30.17 22.61 32.2 16.58 33.53 13.5Z"
       id="a37FkO6ZWE" />
    <path
       d="M14 67.81L23.06 44.38L48.2 44.81C48.25 47.34 48.5 49.77 48.94 52.13C49.38 54.48 49.9 56.75 50.5 58.94L53.31 67.81L14 67.81Z"
       id="a3xgrE1iPE" />
    <path
       d="M32.26 51.13L32.07 49.75"
       id="e5DeqZL76q" />
    <path
       d="M41.13 61.08C39.53 60.01 38.53 59.35 38.13 59.08C36.34 57.89 33.98 57.99 32.3 59.33C31.61 59.89 29.89 61.27 27.13 63.48"
       id="d4E4IhAI1" />
    <path
       d="M33.16 50.23C33.16 51.07 32.76 51.76 32.28 51.76C31.8 51.76 31.41 51.07 31.41 50.23C31.41 49.39 31.8 48.7 32.28 48.7C32.76 48.7 33.16 49.39 33.16 50.23Z"
       id="bmcvOxsaS" />
    <path
       d="M39.18 50.49C39.18 51.34 38.79 52.02 38.31 52.02C37.83 52.02 37.44 51.34 37.44 50.49C37.44 49.65 37.83 48.96 38.31 48.96C38.79 48.96 39.18 49.65 39.18 50.49Z"
       id="aBVRm10BE" />
  </defs>
  <g
     id="g3937">
    <g
       id="g3851">
      <use
         height="100%"
         width="100%"
         y="0"
         x="0"
         style="opacity:1;fill:#5f370f;fill-opacity:1"
         id="use3845"
         xlink:href="#k1u5trRSZM" />
      <g
         id="g3849">
        <use
           height="100%"
           width="100%"
           y="0"
           x="0"
           style="opacity:1;fill-opacity:0;stroke:#5f370f;stroke-width:1;stroke-opacity:1"
           id="use3847"
           xlink:href="#k1u5trRSZM" />
      </g>
    </g>
    <g
       id="g3859">
      <use
         height="100%"
         width="100%"
         y="0"
         x="0"
         style="opacity:1;fill:#ffffff;fill-opacity:1"
         id="use3853"
         xlink:href="#a5sxWz61J" />
      <g
         id="g3857">
        <use
           height="100%"
           width="100%"
           y="0"
           x="0"
           style="opacity:1;fill-opacity:0;stroke:#ffffff;stroke-width:1;stroke-opacity:1"
           id="use3855"
           xlink:href="#a5sxWz61J" />
      </g>
    </g>
    <g
       id="g3867">
      <use
         height="100%"
         width="100%"
         y="0"
         x="0"
         style="opacity:1;fill:#5f370f;fill-opacity:1"
         id="use3861"
         xlink:href="#g1embFq4Df" />
      <g
         id="g3865">
        <use
           height="100%"
           width="100%"
           y="0"
           x="0"
           style="opacity:1;fill-opacity:0;stroke:#5f370f;stroke-width:1;stroke-opacity:1"
           id="use3863"
           xlink:href="#g1embFq4Df" />
      </g>
    </g>
    <g
       id="g3875">
      <use
         height="100%"
         width="100%"
         y="0"
         x="0"
         style="opacity:1;fill:#ff6600;fill-opacity:1"
         id="use3869"
         xlink:href="#eqcl297R" />
      <g
         id="g3873">
        <use
           height="100%"
           width="100%"
           y="0"
           x="0"
           style="opacity:1;fill-opacity:0;stroke:#fb6400;stroke-width:1;stroke-opacity:1"
           id="use3871"
           xlink:href="#eqcl297R" />
      </g>
    </g>
    <g
       id="g3883">
      <use
         height="100%"
         width="100%"
         y="0"
         x="0"
         style="opacity:1;fill:#ff6600;fill-opacity:1"
         id="use3877"
         xlink:href="#bxGcjDzi" />
      <g
         id="g3881">
        <use
           height="100%"
           width="100%"
           y="0"
           x="0"
           style="opacity:1;fill-opacity:0;stroke:#ff6600;stroke-width:1;stroke-opacity:1"
           id="use3879"
           xlink:href="#bxGcjDzi" />
      </g>
    </g>
    <g
       id="g3889">
      <g
         id="g3887">
        <use
           height="100%"
           width="100%"
           y="0"
           x="0"
           style="opacity:1;fill-opacity:0;stroke:#ffffff;stroke-width:1;stroke-opacity:1"
           id="use3885"
           xlink:href="#eJHMtbuAE" />
      </g>
    </g>
    <g
       id="g3897">
      <use
         height="100%"
         width="100%"
         y="0"
         x="0"
         style="opacity:1;fill:#ffffff;fill-opacity:1"
         id="use3891"
         xlink:href="#c77D2s21P" />
      <g
         id="g3895">
        <use
           height="100%"
           width="100%"
           y="0"
           x="0"
           style="opacity:1;fill-opacity:0;stroke:#ffffff;stroke-width:1;stroke-opacity:1"
           id="use3893"
           xlink:href="#c77D2s21P" />
      </g>
    </g>
    <g
       id="g3905">
      <use
         height="100%"
         width="100%"
         y="0"
         x="0"
         style="opacity:1;fill:#fb6400;fill-opacity:1"
         id="use3899"
         xlink:href="#a37FkO6ZWE" />
      <g
         id="g3903">
        <use
           height="100%"
           width="100%"
           y="0"
           x="0"
           style="opacity:1;fill-opacity:0;stroke:#fb6400;stroke-width:1;stroke-opacity:1"
           id="use3901"
           xlink:href="#a37FkO6ZWE" />
      </g>
    </g>
    <g
       id="g3913">
      <use
         height="100%"
         width="100%"
         y="0"
         x="0"
         style="opacity:1;fill:#fb6400;fill-opacity:1"
         id="use3907"
         xlink:href="#a3xgrE1iPE" />
      <g
         id="g3911">
        <use
           height="100%"
           width="100%"
           y="0"
           x="0"
           style="opacity:1;fill-opacity:0;stroke:#fb6400;stroke-width:1;stroke-opacity:1"
           id="use3909"
           xlink:href="#a3xgrE1iPE" />
      </g>
    </g>
    <g
       id="g3925"
       transform="matrix(-0.63102665,0,0,-0.52462554,58.577829,87.350369)">
      <g
         id="g3923">
        <use
           height="100%"
           width="100%"
           y="0"
           x="0"
           style="opacity:1;fill-opacity:0;stroke:#633a12;stroke-width:1;stroke-opacity:1"
           id="use3921"
           xlink:href="#d4E4IhAI1" />
      </g>
    </g>
    <path
       sodipodi:type="spiral"
       style="fill:none;fill-rule:evenodd;stroke:#000000"
       id="path3990-5"
       sodipodi:cx="32.07"
       sodipodi:cy="49.75"
       sodipodi:expansion="1.27"
       sodipodi:revolution="8"
       sodipodi:radius="22.663155"
       sodipodi:argument="-50.201088"
       sodipodi:t0="0"
       d="m 32.07,49.75 c 0.152109,0.0098 0.04512,0.232708 -0.01788,0.277255 -0.256656,0.181496 -0.569695,-0.07558 -0.650753,-0.320371 -0.167287,-0.505188 0.266149,-0.980218 0.740788,-1.075865 0.769602,-0.155088 1.440922,0.491357 1.540326,1.22296 0.142942,1.052031 -0.740895,1.939653 -1.750527,2.036795 -1.350701,0.129957 -2.469588,-1.009635 -2.560508,-2.314787 -0.115903,-1.663782 1.294461,-3.026278 2.910195,-3.108099 1.989774,-0.100762 3.606554,1.593246 3.677046,3.532869 0.08459,2.327465 -1.904425,4.208025 -4.179905,4.265377 -2.675873,0.06744 -4.828811,-2.226798 -4.871507,-4.849045 -0.0494,-3.034186 2.559405,-5.467387 5.538472,-5.494123 3.401719,-0.03053 6.122492,2.90146 6.132124,6.246685 0.01088,3.777891 -3.252308,6.793056 -6.972427,6.784568 -4.162197,-0.0095 -7.478162,-3.611392 -7.450637,-7.71462 0.03055,-4.5542 3.978232,-8.177016 8.472332,-8.129619 4.953512,0.05224 8.888917,4.352408 8.820881,9.244749 -0.07454,5.359788 -4.73355,9.613245 -10.03115,9.52386 C 25.64415,59.781188 21.067426,54.757257 21.17882,49.047697 21.299627,42.855664 26.69428,37.950678 32.822221,38.0847 c 6.617472,0.144728 11.855514,5.915668 11.698283,12.468154 -0.169142,7.048808 -6.321718,12.624521 -13.30468,12.44353 C 23.729993,62.802359 17.812162,56.262994 18.017434,48.843839 18.236793,40.91549 25.167917,34.651246 33.028788,34.881294 41.40497,35.126421 48.019781,42.454109 47.764486,50.762038 47.493174,59.591203 39.76427,66.560607 31.00411,66.279611 21.716965,65.981712 14.389065,57.847084 14.696193,48.629673 15.021066,38.879695 23.565796,31.189507 33.245332,31.523184 43.462864,31.875407 51.519026,40.834491 51.1584,50.98089 50.778465,61.67057 41.400889,70.096295 30.783013,69.708334 19.616709,69.300335 10.817925,59.500237 11.233593,48.406392 11.669997,36.759097 21.896544,27.583846 33.470741,28.027581 45.603287,28.492722 55.158334,39.14955 54.686182,51.208374"
       transform="matrix(0.09395894,0,0,0.10960015,34.024035,44.110357)" />
    <ellipse
       id="path4819"
       style="opacity:1;fill:none;fill-opacity:0.24919093;fill-rule:nonzero;stroke:#000000;stroke-width:0.07546134;stroke-miterlimit:4;stroke-dasharray:none;stroke-opacity:1"
       cx="31.092497"
       cy="49.480747"
       rx="2.0478134"
       ry="2.2804947" />
    <ellipse
       id="path4819-6"
       style="opacity:1;fill:none;fill-opacity:0.24919093;fill-rule:nonzero;stroke:#000000;stroke-width:0.07541664;stroke-miterlimit:4;stroke-dasharray:none;stroke-opacity:1"
       cx="37.125595"
       cy="49.482365"
       rx="2.0257387"
       ry="2.3026142" />
    <path
       style="fill:none;stroke:#000000;stroke-width:0.10583378;stroke-linecap:butt;stroke-linejoin:miter;stroke-miterlimit:4;stroke-dasharray:none;stroke-opacity:1"
       d="m 33.092104,49.589153 2.016629,0.09075"
       id="path6585"
       inkscape:connector-curvature="0" />
    <path
       style="fill:none;stroke:#000000;stroke-width:0.12725791;stroke-linecap:butt;stroke-linejoin:miter;stroke-miterlimit:4;stroke-dasharray:none;stroke-opacity:1"
       d="m 39.162291,49.722802 7.069504,-3.469217"
       id="path6587"
       inkscape:connector-curvature="0" />
    <path
       style="fill:none;stroke:#000000;stroke-width:0.11670059;stroke-linecap:butt;stroke-linejoin:miter;stroke-miterlimit:4;stroke-dasharray:none;stroke-opacity:1"
       d="M 29.01953,49.402658 26.453042,46.061231"
       id="path6589"
       inkscape:connector-curvature="0" />
    <path
       sodipodi:type="spiral"
       style="fill:none;fill-rule:evenodd;stroke:#000000"
       id="path3990-5-1"
       sodipodi:cx="32.07"
       sodipodi:cy="49.75"
       sodipodi:expansion="1.27"
       sodipodi:revolution="8"
       sodipodi:radius="22.663155"
       sodipodi:argument="-50.201088"
       sodipodi:t0="0"
       d="m 32.07,49.75 c 0.152109,0.0098 0.04512,0.232708 -0.01788,0.277255 -0.256656,0.181496 -0.569695,-0.07558 -0.650753,-0.320371 -0.167287,-0.505188 0.266149,-0.980218 0.740788,-1.075865 0.769602,-0.155088 1.440922,0.491357 1.540326,1.22296 0.142942,1.052031 -0.740895,1.939653 -1.750527,2.036795 -1.350701,0.129957 -2.469588,-1.009635 -2.560508,-2.314787 -0.115903,-1.663782 1.294461,-3.026278 2.910195,-3.108099 1.989774,-0.100762 3.606554,1.593246 3.677046,3.532869 0.08459,2.327465 -1.904425,4.208025 -4.179905,4.265377 -2.675873,0.06744 -4.828811,-2.226798 -4.871507,-4.849045 -0.0494,-3.034186 2.559405,-5.467387 5.538472,-5.494123 3.401719,-0.03053 6.122492,2.90146 6.132124,6.246685 0.01088,3.777891 -3.252308,6.793056 -6.972427,6.784568 -4.162197,-0.0095 -7.478162,-3.611392 -7.450637,-7.71462 0.03055,-4.5542 3.978232,-8.177016 8.472332,-8.129619 4.953512,0.05224 8.888917,4.352408 8.820881,9.244749 -0.07454,5.359788 -4.73355,9.613245 -10.03115,9.52386 C 25.64415,59.781188 21.067426,54.757257 21.17882,49.047697 21.299627,42.855664 26.69428,37.950678 32.822221,38.0847 c 6.617472,0.144728 11.855514,5.915668 11.698283,12.468154 -0.169142,7.048808 -6.321718,12.624521 -13.30468,12.44353 C 23.729993,62.802359 17.812162,56.262994 18.017434,48.843839 18.236793,40.91549 25.167917,34.651246 33.028788,34.881294 41.40497,35.126421 48.019781,42.454109 47.764486,50.762038 47.493174,59.591203 39.76427,66.560607 31.00411,66.279611 21.716965,65.981712 14.389065,57.847084 14.696193,48.629673 15.021066,38.879695 23.565796,31.189507 33.245332,31.523184 43.462864,31.875407 51.519026,40.834491 51.1584,50.98089 50.778465,61.67057 41.400889,70.096295 30.783013,69.708334 19.616709,69.300335 10.817925,59.500237 11.233593,48.406392 11.669997,36.759097 21.896544,27.583846 33.470741,28.027581 45.603287,28.492722 55.158334,39.14955 54.686182,51.208374"
       transform="matrix(0.09395894,0,0,0.10960015,27.993602,44.126206)" />
  </g>
  <g
     inkscape:groupmode="layer"
     id="layer1"
     inkscape:label="Layer 1"
     style="display:inline" />
</svg>
