<?xml version="1.0" encoding="UTF-8" standalone="no"?>
<!DOCTYPE svg PUBLIC "-//W3C//DTD SVG 1.1//EN" "http://www.w3.org/Graphics/SVG/1.1/DTD/svg11.dtd">
<svg version="1.1" xmlns="http://www.w3.org/2000/svg" xmlns:xlink="http://www.w3.org/1999/xlink" preserveAspectRatio="xMidYMid meet" viewBox="0 0 65 113.21" width="65" height="113.21"><defs><path d="M35.2 105.82L34.88 106.49L34.81 107.38L34.97 108.21L35.34 108.74L36.52 109.14L37.9 109.22L39.13 109.1L39.89 108.91L40.59 108.34L40.94 107.62L41.03 106.94L40.99 106.48L40.66 105.84L40.14 105.23L39.64 104.68L39.39 104.23L39.42 103.29L39.71 102.45L40.07 101.69L40.31 101.01L40.42 100.15L40.45 99.35L40.39 98.58L40.25 97.86L39.65 104.86L38.65 104.91L37.33 105.07L36.06 105.37L36.06 105.37L35.2 105.82Z" id="k1u5trRSZM"></path><path d="M13.88 68.44C34.84 68.37 47.95 68.33 53.19 68.32C53.4 68.32 53.59 68.46 53.65 68.66C54.11 70.3 55.25 74.4 57.09 80.96L8.66 81.31L13.88 68.44Z" id="a5sxWz61J"></path><path d="M18.03 103.68C18.34 103.86 17.89 105.23 18.85 105.82C19.82 106.42 21.58 106.41 21.4 107.56C21.28 108.33 20.32 109.16 18.53 110.06C16.32 109.58 14.98 109.12 14.53 108.68C14.07 108.25 14.15 107.33 14.78 105.93L16.84 105.05L18.28 103.43L19.65 99.06" id="g1embFq4Df"></path><path d="" id="eqcl297R"></path><path d="M63.02 98.79L57.3 81.44L9.14 80.01L1.97 98.81L63.02 98.79Z" id="bxGcjDzi"></path><path d="" id="eJHMtbuAE"></path><path d="M48.2 44.19L47.76 32.03C43.16 31.38 40.47 31.08 39.7 31.13C39.27 31.15 38.85 31.32 38.45 31.64C37.89 32.08 37.21 32.32 36.5 32.33C35.26 32.34 32.16 32.38 27.2 32.44L23.51 43.25L48.2 44.19Z" id="c77D2s21P"></path><path d="M33.53 13.5C34.93 10.26 37.14 6.78 40.16 3.05C40.2 3 40.28 3.02 40.28 3.08C40.77 7.82 41.59 11.81 42.74 15.04C43.64 17.59 44.43 19.41 45.1 20.51C45.99 21.95 46.57 23.57 46.8 25.25C46.93 26.16 47.25 28.44 47.76 32.1L27.43 31.6C30.17 22.61 32.2 16.58 33.53 13.5Z" id="a37FkO6ZWE"></path><path d="M14 67.81L23.06 44.38L48.2 44.81C48.25 47.34 48.5 49.77 48.94 52.13C49.38 54.48 49.9 56.75 50.5 58.94L53.31 67.81L14 67.81Z" id="a3xgrE1iPE"></path><path d="M32.26 51.13L32.07 49.75" id="e5DeqZL76q"></path><path d="M41.13 61.08C39.53 60.01 38.53 59.35 38.13 59.08C36.34 57.89 33.98 57.99 32.3 59.33C31.61 59.89 29.89 61.27 27.13 63.48" id="d4E4IhAI1"></path><path d="M33.16 50.23C33.16 51.07 32.76 51.76 32.28 51.76C31.8 51.76 31.41 51.07 31.41 50.23C31.41 49.39 31.8 48.7 32.28 48.7C32.76 48.7 33.16 49.39 33.16 50.23Z" id="bmcvOxsaS"></path><path d="M39.18 50.49C39.18 51.34 38.79 52.02 38.31 52.02C37.83 52.02 37.44 51.34 37.44 50.49C37.44 49.65 37.83 48.96 38.31 48.96C38.79 48.96 39.18 49.65 39.18 50.49Z" id="aBVRm10BE"></path></defs><g><g><g><use xlink:href="#k1u5trRSZM" opacity="1" fill="#5f370f" fill-opacity="1"></use><g><use xlink:href="#k1u5trRSZM" opacity="1" fill-opacity="0" stroke="#5f370f" stroke-width="1" stroke-opacity="1"></use></g></g><g><use xlink:href="#a5sxWz61J" opacity="1" fill="#ffffff" fill-opacity="1"></use><g><use xlink:href="#a5sxWz61J" opacity="1" fill-opacity="0" stroke="#ffffff" stroke-width="1" stroke-opacity="1"></use></g></g><g><use xlink:href="#g1embFq4Df" opacity="1" fill="#5f370f" fill-opacity="1"></use><g><use xlink:href="#g1embFq4Df" opacity="1" fill-opacity="0" stroke="#5f370f" stroke-width="1" stroke-opacity="1"></use></g></g><g><use xlink:href="#eqcl297R" opacity="1" fill="#ff6600" fill-opacity="1"></use><g><use xlink:href="#eqcl297R" opacity="1" fill-opacity="0" stroke="#fb6400" stroke-width="1" stroke-opacity="1"></use></g></g><g><use xlink:href="#bxGcjDzi" opacity="1" fill="#ff6600" fill-opacity="1"></use><g><use xlink:href="#bxGcjDzi" opacity="1" fill-opacity="0" stroke="#ff6600" stroke-width="1" stroke-opacity="1"></use></g></g><g><g><use xlink:href="#eJHMtbuAE" opacity="1" fill-opacity="0" stroke="#ffffff" stroke-width="1" stroke-opacity="1"></use></g></g><g><use xlink:href="#c77D2s21P" opacity="1" fill="#ffffff" fill-opacity="1"></use><g><use xlink:href="#c77D2s21P" opacity="1" fill-opacity="0" stroke="#ffffff" stroke-width="1" stroke-opacity="1"></use></g></g><g><use xlink:href="#a37FkO6ZWE" opacity="1" fill="#fb6400" fill-opacity="1"></use><g><use xlink:href="#a37FkO6ZWE" opacity="1" fill-opacity="0" stroke="#fb6400" stroke-width="1" stroke-opacity="1"></use></g></g><g><use xlink:href="#a3xgrE1iPE" opacity="1" fill="#fb6400" fill-opacity="1"></use><g><use xlink:href="#a3xgrE1iPE" opacity="1" fill-opacity="0" stroke="#fb6400" stroke-width="1" stroke-opacity="1"></use></g></g><g><g><use xlink:href="#e5DeqZL76q" opacity="0.5" fill-opacity="0" stroke="#633a12" stroke-width="1" stroke-opacity="1"></use></g></g><g><g><use xlink:href="#d4E4IhAI1" opacity="1" fill-opacity="0" stroke="#633a12" stroke-width="1" stroke-opacity="1"></use></g></g><g><use xlink:href="#bmcvOxsaS" opacity="1" fill="#633a12" fill-opacity="1"></use></g><g><use xlink:href="#aBVRm10BE" opacity="1" fill="#633a12" fill-opacity="1"></use></g></g></g></svg>